<svg width="398" height="62" viewBox="0 0 398 62" fill="none" xmlns="http://www.w3.org/2000/svg">
<path d="M55 61.277C52.243 61.277 50 59.034 50 56.277V35.221C50 32.464 52.243 30.221 55 30.221C57.757 30.221 60 32.464 60 35.221V56.277C60 59.034 57.757 61.277 55 61.277Z" fill="white"/>
<path d="M73.75 61.277C70.993 61.277 68.75 59.034 68.75 56.277V5C68.75 2.243 70.993 0 73.75 0C76.507 0 78.75 2.243 78.75 5V56.277C78.75 59.034 76.507 61.277 73.75 61.277Z" fill="white"/>
<path d="M37.389 61.277C34.632 61.277 32.389 59.034 32.389 56.277V50.111C32.389 47.354 34.632 45.111 37.389 45.111C40.146 45.111 42.389 47.354 42.389 50.111V56.277C42.389 59.034 40.146 61.277 37.389 61.277Z" fill="white"/>
<path d="M5 61.277C2.243 61.277 0 59.034 0 56.277V6.55904C0 6.39004 0.0089939 6.22603 0.0249939 6.06303C0.0259939 6.05303 0.0859919 5.63203 0.0979919 5.57203L0.213989 5.10903L0.380005 4.64404L0.589996 4.19904L0.841003 3.78003C0.874003 3.73103 1.09299 3.44003 1.09299 3.44003C1.33899 3.13503 1.57501 2.89903 1.83301 2.68703C1.84201 2.68003 1.98001 2.57904 1.98901 2.57304C2.11201 2.47904 2.16498 2.43603 2.22198 2.39803L2.63501 2.15003L3.08701 1.93604L3.548 1.77103C3.548 1.77103 3.962 1.66403 4.017 1.65403L4.51199 1.58003C4.64899 1.56703 4.79301 1.56204 4.93701 1.56004C4.95201 1.56004 5.06601 1.56004 5.08701 1.56004C5.20201 1.56204 5.34601 1.56703 5.48901 1.58103L5.98499 1.65503C6.02999 1.66403 6.45401 1.77303 6.45401 1.77303L6.89899 1.93203L7.345 2.14304L7.772 2.39803C7.829 2.43603 7.88301 2.47903 7.93701 2.52103L8.10901 2.64903C8.29201 2.79403 8.41501 2.90403 8.53101 3.02103L28.442 22.931C28.833 23.322 29.344 23.517 29.856 23.517C30.368 23.517 30.879 23.322 31.27 22.931L51.182 3.02003C52.126 2.07603 53.382 1.55603 54.718 1.55603C56.053 1.55603 57.309 2.07603 58.254 3.02003C59.198 3.96403 59.718 5.22003 59.718 6.55503C59.718 7.89103 59.198 9.14703 58.254 10.091L33.393 34.952C32.449 35.896 31.193 36.416 29.858 36.416C28.523 36.416 27.267 35.896 26.321 34.951L13.41 22.041C13.028 21.658 12.516 21.455 11.995 21.455C11.737 21.455 11.477 21.505 11.23 21.607C10.482 21.917 9.995 22.646 9.995 23.455V56.277C10 59.034 7.757 61.277 5 61.277Z" fill="white"/>
<path d="M363.317 51.448L356.541 32.016C356.205 31.0454 355.943 30.3174 355.757 29.832C355.607 29.3467 355.495 28.936 355.421 28.6C355.346 28.264 355.253 27.872 355.141 27.424L352.957 27.536V23.28H366.397V26.864C365.239 26.9014 364.567 27.3494 364.381 28.208C364.194 29.0667 364.25 30.0747 364.549 31.232L366.453 38.064C366.677 38.8854 366.882 39.7627 367.069 40.696C367.293 41.592 367.479 42.488 367.629 43.384C367.815 42.6 368.002 41.7414 368.189 40.808C368.413 39.8747 368.73 38.7174 369.141 37.336L373.229 23.28H379.333L383.813 38.736C384.037 39.52 384.261 40.3787 384.485 41.312C384.746 42.208 384.97 43.0294 385.157 43.776C385.306 43.0294 385.511 42.208 385.773 41.312C386.034 40.416 386.277 39.6134 386.501 38.904L388.685 31.792C388.983 30.784 389.245 29.9627 389.469 29.328C389.693 28.656 389.973 27.984 390.309 27.312L387.117 27.536V23.28H397.757V26.864C397.01 26.864 396.357 27.1067 395.797 27.592C395.237 28.0774 394.733 28.6747 394.285 29.384C393.874 30.056 393.538 30.728 393.277 31.4C393.015 32.0347 392.829 32.5387 392.717 32.912L386.333 51.448H380.397L376.533 39.52C376.421 39.1094 376.234 38.512 375.973 37.728C375.749 36.944 375.506 36.104 375.245 35.208C375.021 34.2747 374.797 33.416 374.573 32.632C374.386 33.6774 374.106 34.872 373.733 36.216C373.359 37.56 373.005 38.792 372.669 39.912C372.333 41.032 372.09 41.7974 371.941 42.208L368.861 51.448H363.317Z" fill="white"/>
<path d="M337.189 52.176C334.501 52.176 332.074 51.5974 329.909 50.44C327.743 49.2827 326.026 47.64 324.757 45.512C323.525 43.3467 322.909 40.808 322.909 37.896C322.909 34.7974 323.543 32.0907 324.813 29.776C326.119 27.424 327.837 25.6134 329.965 24.344C332.13 23.0374 334.482 22.384 337.021 22.384C339.709 22.384 342.117 22.9627 344.245 24.12C346.373 25.2774 348.053 26.9387 349.285 29.104C350.517 31.232 351.133 33.7894 351.133 36.776C351.133 39.912 350.535 42.6374 349.341 44.952C348.146 47.2667 346.503 49.0587 344.413 50.328C342.322 51.56 339.914 52.176 337.189 52.176ZM337.413 48.2C338.906 48.1627 340.026 47.64 340.773 46.632C341.557 45.624 342.098 44.3547 342.397 42.824C342.695 41.2934 342.845 39.744 342.845 38.176C342.845 36.7947 342.733 35.3947 342.509 33.976C342.322 32.5574 342.005 31.2694 341.557 30.112C341.109 28.9547 340.493 28.0214 339.709 27.312C338.962 26.6027 338.029 26.2667 336.909 26.304C335.453 26.3414 334.295 26.864 333.437 27.872C332.615 28.88 332.018 30.1494 331.645 31.68C331.309 33.1734 331.141 34.7414 331.141 36.384C331.141 38.288 331.346 40.1547 331.757 41.984C332.167 43.8134 332.821 45.3254 333.717 46.52C334.65 47.6774 335.882 48.2374 337.413 48.2Z" fill="white"/>
<path d="M305.127 47.64C306.173 47.64 306.919 47.4347 307.367 47.024C307.853 46.6133 308.151 46.0347 308.263 45.288C308.375 44.504 308.431 43.6267 308.431 42.656V19.64C308.431 18.968 308.45 18.2027 308.487 17.344C308.525 16.448 308.581 15.5893 308.655 14.768C308.058 14.8053 307.349 14.8427 306.527 14.88C305.743 14.88 305.146 14.8987 304.735 14.936V10.68C306.49 10.68 307.946 10.5867 309.103 10.4C310.298 10.2133 311.231 9.98934 311.903 9.728C312.613 9.46667 313.098 9.224 313.359 9H316.383V42.264C316.383 42.7867 316.365 43.5333 316.327 44.504C316.29 45.4373 316.234 46.3333 316.159 47.192C316.794 47.1173 317.466 47.08 318.175 47.08C318.885 47.0427 319.426 47.024 319.799 47.024V51.28H305.127V47.64Z" fill="white"/>
<path d="M274.262 51.28V47.584C275.12 47.5467 275.83 47.4347 276.39 47.248C276.987 47.0613 277.435 46.632 277.734 45.96C278.07 45.288 278.238 44.2054 278.238 42.712V21.264C278.238 20.256 278.256 19.2854 278.294 18.352C278.368 17.4187 278.424 16.7093 278.462 16.224C277.864 16.2614 277.118 16.2987 276.222 16.336C275.326 16.336 274.672 16.3547 274.262 16.392V12.08H302.262L302.598 22.944H298.902C298.902 20.8907 298.547 19.3413 297.838 18.296C297.128 17.2507 296.251 16.56 295.206 16.224C294.16 15.8507 293.134 15.6827 292.126 15.72L290.11 15.776C289.326 15.776 288.654 15.888 288.094 16.112C287.534 16.2987 287.104 16.7467 286.806 17.456C286.507 18.128 286.358 19.192 286.358 20.648V30.392H292.126L291.902 25.576H296.214V39.184H292.518C292.518 37.616 292.275 36.4774 291.79 35.768C291.304 35.0587 290.632 34.6294 289.774 34.48C288.952 34.2934 288.038 34.2187 287.03 34.256H286.358V42.096C286.358 43.104 286.339 44.0747 286.302 45.008C286.264 45.9414 286.208 46.6507 286.134 47.136C286.544 47.0987 287.086 47.08 287.758 47.08C288.43 47.0427 289.083 47.024 289.718 47.024C290.39 46.9867 290.856 46.968 291.118 46.968V51.28H274.262Z" fill="white"/>
<path d="M257.181 52.176C254.493 52.176 252.066 51.5974 249.901 50.44C247.736 49.2827 246.018 47.64 244.749 45.512C243.517 43.3467 242.901 40.808 242.901 37.896C242.901 34.7974 243.536 32.0907 244.805 29.776C246.112 27.424 247.829 25.6134 249.957 24.344C252.122 23.0374 254.474 22.384 257.013 22.384C259.701 22.384 262.109 22.9627 264.237 24.12C266.365 25.2774 268.045 26.9387 269.277 29.104C270.509 31.232 271.125 33.7894 271.125 36.776C271.125 39.912 270.528 42.6374 269.333 44.952C268.138 47.2667 266.496 49.0587 264.405 50.328C262.314 51.56 259.906 52.176 257.181 52.176ZM257.405 48.2C258.898 48.1627 260.018 47.64 260.765 46.632C261.549 45.624 262.09 44.3547 262.389 42.824C262.688 41.2934 262.837 39.744 262.837 38.176C262.837 36.7947 262.725 35.3947 262.501 33.976C262.314 32.5574 261.997 31.2694 261.549 30.112C261.101 28.9547 260.485 28.0214 259.701 27.312C258.954 26.6027 258.021 26.2667 256.901 26.304C255.445 26.3414 254.288 26.864 253.429 27.872C252.608 28.88 252.01 30.1494 251.637 31.68C251.301 33.1734 251.133 34.7414 251.133 36.384C251.133 38.288 251.338 40.1547 251.749 41.984C252.16 43.8134 252.813 45.3254 253.709 46.52C254.642 47.6774 255.874 48.2374 257.405 48.2Z" fill="white"/>
<path d="M216.992 47.64C218.037 47.64 218.784 47.4347 219.232 47.024C219.68 46.6134 219.96 46.0347 220.072 45.288C220.221 44.504 220.296 43.6267 220.296 42.656V33.248C220.296 32.576 220.315 31.8294 220.352 31.008C220.389 30.1494 220.445 29.3094 220.52 28.488C219.923 28.5254 219.213 28.5627 218.392 28.6C217.608 28.6 217.011 28.6187 216.6 28.656V24.4H218.84C220.296 24.4 221.621 24.2134 222.816 23.84C224.048 23.4667 224.851 23.0934 225.224 22.72H227.968C228.043 23.0934 228.099 23.8027 228.136 24.848C228.173 25.856 228.192 26.752 228.192 27.536C229.2 26.304 230.152 25.3147 231.048 24.568C231.944 23.8214 232.821 23.28 233.68 22.944C234.576 22.5707 235.472 22.384 236.368 22.384C237.675 22.384 238.813 22.7574 239.784 23.504C240.755 24.2134 241.24 25.3894 241.24 27.032C241.24 27.592 241.109 28.1894 240.848 28.824C240.587 29.4214 240.176 29.9254 239.616 30.336C239.056 30.7467 238.291 30.952 237.32 30.952C236.573 30.952 235.808 30.728 235.024 30.28C234.24 29.832 233.792 28.9734 233.68 27.704C232.933 27.704 232.187 28.0214 231.44 28.656C230.693 29.2534 230.021 29.9814 229.424 30.84C228.864 31.6614 228.472 32.4267 228.248 33.136V42.264C228.248 42.7867 228.229 43.5334 228.192 44.504C228.155 45.4374 228.099 46.3334 228.024 47.192C228.621 47.1174 229.275 47.08 229.984 47.08C230.731 47.0427 231.291 47.024 231.664 47.024V51.28H216.992V47.64Z" fill="white"/>
<path d="M201.224 52.176C198.722 52.176 196.426 51.616 194.336 50.496C192.245 49.376 190.565 47.752 189.296 45.624C188.064 43.496 187.448 40.92 187.448 37.896C187.448 35.768 187.802 33.7707 188.512 31.904C189.221 30.0374 190.21 28.3947 191.48 26.976C192.786 25.5574 194.317 24.4374 196.072 23.616C197.864 22.7947 199.842 22.384 202.008 22.384C204.397 22.384 206.376 22.7574 207.944 23.504C209.549 24.2134 210.744 25.1654 211.528 26.36C212.349 27.5174 212.76 28.7494 212.76 30.056C212.76 31.1387 212.424 32.1094 211.752 32.968C211.117 33.7894 210.202 34.2187 209.008 34.256C207.589 34.2934 206.6 33.9014 206.04 33.08C205.48 32.2214 205.2 31.4 205.2 30.616C205.2 30.28 205.256 29.888 205.368 29.44C205.48 28.9547 205.648 28.5254 205.872 28.152C205.61 27.592 205.218 27.1814 204.696 26.92C204.173 26.6587 203.632 26.4907 203.072 26.416C202.549 26.304 202.12 26.2667 201.784 26.304C199.992 26.416 198.517 27.312 197.36 28.992C196.202 30.672 195.624 33.0987 195.624 36.272C195.624 38.1387 195.848 39.8934 196.296 41.536C196.781 43.1414 197.565 44.4667 198.648 45.512C199.73 46.5574 201.186 47.1174 203.016 47.192C204.584 47.2294 206.114 46.856 207.608 46.072C209.101 45.288 210.37 44.224 211.416 42.88L213.992 45.4C212.648 47.2667 211.248 48.6854 209.792 49.656C208.336 50.6267 206.88 51.28 205.424 51.616C204.005 51.9894 202.605 52.176 201.224 52.176Z" fill="white"/>
<path d="M174.209 51.28C174.134 50.7574 174.078 50.328 174.041 49.992C174.041 49.6187 174.022 49.1894 173.985 48.704C172.715 49.9734 171.371 50.8694 169.953 51.392C168.534 51.9147 167.097 52.176 165.641 52.176C163.251 52.176 161.385 51.4667 160.041 50.048C158.697 48.6294 158.025 46.856 158.025 44.728C158.025 42.936 158.473 41.4054 159.369 40.136C160.302 38.8667 161.515 37.84 163.009 37.056C164.539 36.2347 166.219 35.6187 168.049 35.208C169.915 34.76 171.782 34.4987 173.649 34.424V31.512C173.649 30.5414 173.518 29.664 173.257 28.88C173.033 28.096 172.622 27.48 172.025 27.032C171.465 26.584 170.662 26.3787 169.617 26.416C168.907 26.4534 168.217 26.6027 167.545 26.864C166.873 27.1254 166.294 27.4987 165.809 27.984C166.107 28.32 166.294 28.6934 166.369 29.104C166.443 29.4774 166.481 29.8134 166.481 30.112C166.481 30.8587 166.182 31.6427 165.585 32.464C164.987 33.248 164.035 33.6214 162.729 33.584C161.609 33.5467 160.75 33.1547 160.153 32.408C159.555 31.6614 159.257 30.784 159.257 29.776C159.257 28.2827 159.779 26.9947 160.825 25.912C161.907 24.792 163.345 23.9334 165.137 23.336C166.929 22.7014 168.907 22.384 171.073 22.384C174.358 22.384 176.897 23.2427 178.689 24.96C180.518 26.64 181.433 29.3467 181.433 33.08C181.433 34.3494 181.433 35.432 181.433 36.328C181.433 37.224 181.414 38.12 181.377 39.016C181.377 39.912 181.377 40.9947 181.377 42.264C181.377 42.7867 181.358 43.5334 181.321 44.504C181.283 45.4374 181.227 46.3334 181.153 47.192C181.787 47.1174 182.459 47.08 183.169 47.08C183.878 47.0427 184.419 47.024 184.793 47.024V51.28H174.209ZM173.593 38.4C172.547 38.512 171.558 38.6987 170.625 38.96C169.691 39.2214 168.87 39.576 168.161 40.024C167.489 40.472 166.947 41.0134 166.537 41.648C166.163 42.2827 165.977 42.992 165.977 43.776C166.014 44.8214 166.35 45.568 166.985 46.016C167.619 46.464 168.347 46.688 169.169 46.688C170.027 46.688 170.83 46.5014 171.577 46.128C172.323 45.7547 172.995 45.2694 173.593 44.672C173.593 44.2987 173.593 43.944 173.593 43.608C173.593 43.2347 173.593 42.8614 173.593 42.488C173.593 41.816 173.593 41.144 173.593 40.472C173.593 39.7627 173.593 39.072 173.593 38.4Z" fill="white"/>
<path d="M125.216 51.84C123.947 48.7414 122.677 45.6614 121.408 42.6C120.176 39.5387 118.925 36.4774 117.656 33.416C117.357 32.7067 116.965 31.7174 116.48 30.448C116.032 29.1414 115.547 27.648 115.024 25.968C114.539 24.288 114.091 22.552 113.68 20.76C113.755 22.8507 113.811 24.8294 113.848 26.696C113.885 28.5254 113.885 30.28 113.848 31.96C113.848 32.7814 113.848 33.6214 113.848 34.48C113.848 35.3387 113.829 36.1974 113.792 37.056C113.792 37.8774 113.792 38.7174 113.792 39.576C113.792 40.3974 113.792 41.2374 113.792 42.096C113.792 43.104 113.755 44.0747 113.68 45.008C113.643 45.9414 113.587 46.6507 113.512 47.136C114.147 47.0614 114.912 47.024 115.808 47.024C116.741 46.9867 117.395 46.968 117.768 46.968V51.28H105V47.584C105.859 47.5467 106.568 47.4347 107.128 47.248C107.725 47.0613 108.173 46.632 108.472 45.96C108.808 45.288 108.976 44.2054 108.976 42.712L109.312 21.264C109.349 20.256 109.387 19.2854 109.424 18.352C109.461 17.4187 109.499 16.7093 109.536 16.224C108.939 16.2614 108.192 16.2987 107.296 16.336C106.4 16.336 105.747 16.3547 105.336 16.392V12.08H117.712L126.168 33.752C126.504 34.6107 126.877 35.6187 127.288 36.776C127.699 37.896 128.091 38.9974 128.464 40.08C128.837 41.1254 129.117 41.9654 129.304 42.6H129.36C129.845 41.2934 130.293 40.024 130.704 38.792C131.115 37.56 131.544 36.3654 131.992 35.208C133.448 31.3254 134.885 27.4614 136.304 23.616C137.76 19.7707 139.216 15.9254 140.672 12.08H153.608V15.776C152.787 15.8134 152.059 15.9254 151.424 16.112C150.789 16.2987 150.304 16.728 149.968 17.4C149.669 18.0347 149.539 19.1174 149.576 20.648L150.416 42.096C150.491 43.104 150.491 44.0747 150.416 45.008C150.341 45.9414 150.267 46.6507 150.192 47.136C150.827 47.0614 151.592 47.024 152.488 47.024C153.421 46.9867 154.075 46.968 154.448 46.968V51.28H138.88V47.584C139.739 47.5467 140.467 47.4347 141.064 47.248C141.699 47.0613 142.165 46.632 142.464 45.96C142.8 45.288 142.931 44.2054 142.856 42.712L142.408 30.84C142.408 30.392 142.371 29.6267 142.296 28.544C142.221 27.424 142.147 26.2107 142.072 24.904C142.035 23.56 141.997 22.3094 141.96 21.152C141.848 21.4134 141.736 21.6747 141.624 21.936C141.512 22.16 141.419 22.4027 141.344 22.664L130.424 51.84H125.216Z" fill="white"/>
</svg>
