<?xml version="1.0" encoding="UTF-8"?>
<svg xmlns="http://www.w3.org/2000/svg" xmlns:xlink="http://www.w3.org/1999/xlink" viewBox="0 0 346.59 426.22">
  <defs>
    <style>
      .cls-1 {
        fill: url(#Degradado_sin_nombre_2-6);
      }

      .cls-1, .cls-2, .cls-3, .cls-4, .cls-5, .cls-6, .cls-7, .cls-8, .cls-9, .cls-10, .cls-11, .cls-12, .cls-13, .cls-14, .cls-15, .cls-16, .cls-17, .cls-18, .cls-19, .cls-20, .cls-21, .cls-22, .cls-23, .cls-24, .cls-25, .cls-26, .cls-27, .cls-28, .cls-29, .cls-30, .cls-31, .cls-32, .cls-33, .cls-34, .cls-35, .cls-36, .cls-37, .cls-38, .cls-39, .cls-40, .cls-41, .cls-42, .cls-43, .cls-44, .cls-45, .cls-46, .cls-47, .cls-48, .cls-49, .cls-50, .cls-51, .cls-52, .cls-53, .cls-54, .cls-55, .cls-56, .cls-57, .cls-58, .cls-59, .cls-60, .cls-61, .cls-62, .cls-63, .cls-64, .cls-65, .cls-66, .cls-67, .cls-68, .cls-69, .cls-70, .cls-71, .cls-72, .cls-73, .cls-74, .cls-75, .cls-76, .cls-77, .cls-78, .cls-79 {
        stroke-width: 0px;
      }

      .cls-2 {
        fill: url(#Degradado_sin_nombre_17);
      }

      .cls-3 {
        fill: #943bbb;
      }

      .cls-4 {
        fill: url(#Degradado_sin_nombre_292-2);
      }

      .cls-5 {
        fill: #fcc4b7;
      }

      .cls-6 {
        fill: url(#Degradado_sin_nombre_30);
      }

      .cls-6, .cls-37, .cls-39, .cls-61, .cls-67, .cls-76, .cls-79 {
        mix-blend-mode: color-dodge;
      }

      .cls-7 {
        fill: url(#Degradado_sin_nombre_30-4);
      }

      .cls-8 {
        fill: url(#Degradado_sin_nombre_292);
      }

      .cls-9 {
        fill: url(#Degradado_sin_nombre_2-4);
      }

      .cls-10 {
        fill: #55d5c6;
      }

      .cls-11 {
        fill: url(#Degradado_sin_nombre_8);
      }

      .cls-12 {
        fill: #6b5bdf;
      }

      .cls-13 {
        fill: url(#Degradado_sin_nombre_6-3);
      }

      .cls-14 {
        fill: url(#Degradado_sin_nombre_11-2);
      }

      .cls-15 {
        fill: #f9ab83;
      }

      .cls-16 {
        fill: #e9bfff;
      }

      .cls-17 {
        fill: url(#Degradado_sin_nombre_4-5);
      }

      .cls-17, .cls-25, .cls-31, .cls-48, .cls-54 {
        mix-blend-mode: multiply;
      }

      .cls-18 {
        fill: #8737a8;
      }

      .cls-19 {
        fill: url(#Degradado_sin_nombre_3);
      }

      .cls-20 {
        fill: url(#Degradado_sin_nombre_30-3);
      }

      .cls-21 {
        fill: url(#Degradado_sin_nombre_2-7);
      }

      .cls-80 {
        isolation: isolate;
      }

      .cls-22 {
        fill: url(#Degradado_sin_nombre_2-2);
      }

      .cls-23 {
        fill: url(#Degradado_sin_nombre_23-2);
      }

      .cls-24 {
        fill: url(#Degradado_sin_nombre_30-5);
      }

      .cls-25 {
        fill: url(#Degradado_sin_nombre_4-2);
      }

      .cls-26 {
        fill: url(#Degradado_sin_nombre_5-2);
      }

      .cls-27 {
        fill: url(#Degradado_sin_nombre_30-2);
      }

      .cls-28 {
        fill: url(#Degradado_sin_nombre_301);
      }

      .cls-29 {
        fill: url(#Degradado_sin_nombre_2-5);
      }

      .cls-30 {
        fill: url(#Degradado_sin_nombre_6-2);
      }

      .cls-31 {
        fill: url(#Degradado_sin_nombre_4-4);
      }

      .cls-32 {
        fill: url(#Degradado_sin_nombre_2-3);
      }

      .cls-33 {
        fill: #331202;
      }

      .cls-34 {
        fill: #6c91ea;
      }

      .cls-35 {
        fill: url(#Degradado_sin_nombre_3-2);
      }

      .cls-36 {
        fill: #bdcefa;
      }

      .cls-37 {
        fill: url(#Degradado_sin_nombre_19);
      }

      .cls-38 {
        fill: url(#Degradado_sin_nombre_292-3);
      }

      .cls-39 {
        fill: url(#Degradado_sin_nombre_28);
      }

      .cls-40 {
        fill: url(#Degradado_sin_nombre_29);
      }

      .cls-41 {
        fill: #e58800;
        fill-rule: evenodd;
      }

      .cls-42 {
        fill: url(#Degradado_sin_nombre_7);
      }

      .cls-43 {
        fill: #1c1c38;
      }

      .cls-44 {
        fill: url(#Degradado_sin_nombre_9);
      }

      .cls-45 {
        fill: url(#Degradado_sin_nombre_18);
      }

      .cls-46 {
        fill: #007177;
      }

      .cls-47 {
        fill: url(#Degradado_sin_nombre_11);
      }

      .cls-48 {
        fill: url(#Degradado_sin_nombre_4);
      }

      .cls-49 {
        fill: #0db1c2;
      }

      .cls-50 {
        fill: #705fdf;
      }

      .cls-51 {
        fill: #e28c66;
      }

      .cls-52 {
        fill: url(#Degradado_sin_nombre_302);
      }

      .cls-53 {
        fill: url(#Degradado_sin_nombre_22-2);
      }

      .cls-54 {
        fill: url(#Degradado_sin_nombre_4-3);
      }

      .cls-55 {
        fill: url(#Degradado_sin_nombre_292-4);
      }

      .cls-56 {
        fill: #dd936f;
      }

      .cls-57 {
        fill: #46466c;
      }

      .cls-58 {
        fill: #2d2d4f;
      }

      .cls-59 {
        fill: url(#Degradado_sin_nombre_24);
      }

      .cls-60 {
        fill: url(#Degradado_sin_nombre_23);
      }

      .cls-61 {
        fill: url(#Degradado_sin_nombre_306);
      }

      .cls-62 {
        fill: #e5a89c;
      }

      .cls-63 {
        fill: url(#Degradado_sin_nombre_2);
      }

      .cls-64 {
        fill: url(#Degradado_sin_nombre_292-5);
      }

      .cls-65 {
        fill: url(#Degradado_sin_nombre_10);
      }

      .cls-66 {
        fill: #a29afb;
      }

      .cls-67 {
        fill: url(#Degradado_sin_nombre_16);
      }

      .cls-68 {
        fill: #ac5e74;
      }

      .cls-69 {
        fill: #894258;
      }

      .cls-70 {
        fill: #4505b3;
      }

      .cls-71 {
        fill: url(#Degradado_sin_nombre_32);
      }

      .cls-72 {
        fill: url(#Degradado_sin_nombre_5);
      }

      .cls-73 {
        fill: url(#Degradado_sin_nombre_292-6);
      }

      .cls-74 {
        fill: #73ebff;
      }

      .cls-75 {
        fill: url(#Degradado_sin_nombre_22);
      }

      .cls-76 {
        fill: url(#Degradado_sin_nombre_19-2);
      }

      .cls-77 {
        fill: url(#Degradado_sin_nombre_6);
      }

      .cls-78 {
        fill: #010400;
      }

      .cls-79 {
        fill: url(#Degradado_sin_nombre_19-3);
      }
    </style>
    <linearGradient id="Degradado_sin_nombre_32" data-name="Degradado sin nombre 32" x1="85.28" y1="27.6" x2="109.11" y2="217.53" gradientUnits="userSpaceOnUse">
      <stop offset="0" stop-color="#5861d6"/>
      <stop offset=".28" stop-color="#4545b7" stop-opacity=".65"/>
      <stop offset=".53" stop-color="#362f9f" stop-opacity=".37"/>
      <stop offset=".74" stop-color="#2c208d" stop-opacity=".17"/>
      <stop offset=".9" stop-color="#251682" stop-opacity=".05"/>
      <stop offset="1" stop-color="#23137f" stop-opacity="0"/>
    </linearGradient>
    <linearGradient id="Degradado_sin_nombre_306" data-name="Degradado sin nombre 306" x1="66.99" y1="94.3" x2="141.76" y2="224.51" gradientUnits="userSpaceOnUse">
      <stop offset="0" stop-color="#55d5c6"/>
      <stop offset=".19" stop-color="#4bafb8" stop-opacity=".81"/>
      <stop offset=".75" stop-color="#2e3f8f" stop-opacity=".23"/>
      <stop offset="1" stop-color="#23137f" stop-opacity="0"/>
    </linearGradient>
    <linearGradient id="Degradado_sin_nombre_30" data-name="Degradado sin nombre 30" x1="288.73" y1="-176.44" x2="21.57" y2="268.09" gradientUnits="userSpaceOnUse">
      <stop offset="0" stop-color="#fff"/>
      <stop offset=".1" stop-color="#eee" stop-opacity=".93"/>
      <stop offset=".3" stop-color="#c2c2c2" stop-opacity=".76"/>
      <stop offset=".57" stop-color="#7b7c7a" stop-opacity=".48"/>
      <stop offset=".91" stop-color="#1a1d1a" stop-opacity=".1"/>
      <stop offset="1" stop-color="#010400" stop-opacity="0"/>
    </linearGradient>
    <linearGradient id="Degradado_sin_nombre_23" data-name="Degradado sin nombre 23" x1="334.08" y1="272.8" x2="262.82" y2="261.29" gradientUnits="userSpaceOnUse">
      <stop offset=".31" stop-color="#ac36a8"/>
      <stop offset=".48" stop-color="#9b36a8"/>
      <stop offset=".81" stop-color="#6f36a8"/>
      <stop offset="1" stop-color="#5337a8"/>
    </linearGradient>
    <linearGradient id="Degradado_sin_nombre_30-2" data-name="Degradado sin nombre 30" x1="303.54" y1="181.46" x2="255.5" y2="261.39" xlink:href="#Degradado_sin_nombre_30"/>
    <linearGradient id="Degradado_sin_nombre_30-3" data-name="Degradado sin nombre 30" x1="370.97" y1="205.16" x2="292.75" y2="335.32" xlink:href="#Degradado_sin_nombre_30"/>
    <linearGradient id="Degradado_sin_nombre_22" data-name="Degradado sin nombre 22" x1="346.65" y1="251.89" x2="321.28" y2="279.86" gradientUnits="userSpaceOnUse">
      <stop offset="0" stop-color="#0db1c2"/>
      <stop offset=".28" stop-color="#0aa2b1"/>
      <stop offset=".83" stop-color="#027d85"/>
      <stop offset="1" stop-color="#007177"/>
    </linearGradient>
    <linearGradient id="Degradado_sin_nombre_30-4" data-name="Degradado sin nombre 30" x1="281.91" y1="219.48" x2="260.12" y2="255.73" xlink:href="#Degradado_sin_nombre_30"/>
    <linearGradient id="Degradado_sin_nombre_30-5" data-name="Degradado sin nombre 30" x1="352.43" y1="124.46" x2="243.84" y2="305.15" xlink:href="#Degradado_sin_nombre_30"/>
    <linearGradient id="Degradado_sin_nombre_11" data-name="Degradado sin nombre 11" x1="301.51" y1="209.19" x2="252.26" y2="291.12" gradientUnits="userSpaceOnUse">
      <stop offset=".43" stop-color="#0084e9"/>
      <stop offset=".58" stop-color="#0873e4"/>
      <stop offset=".86" stop-color="#1f47d7"/>
      <stop offset="1" stop-color="#2c30d1"/>
    </linearGradient>
    <linearGradient id="Degradado_sin_nombre_19" data-name="Degradado sin nombre 19" x1="67.73" y1="368.36" x2="67.73" y2="273.77" gradientUnits="userSpaceOnUse">
      <stop offset=".07" stop-color="#55d1ff"/>
      <stop offset=".16" stop-color="#4fc3ee" stop-opacity=".93"/>
      <stop offset=".35" stop-color="#409fc2" stop-opacity=".76"/>
      <stop offset=".6" stop-color="#29667a" stop-opacity=".48"/>
      <stop offset=".92" stop-color="#09181a" stop-opacity=".1"/>
      <stop offset="1" stop-color="#010400" stop-opacity="0"/>
    </linearGradient>
    <linearGradient id="Degradado_sin_nombre_29" data-name="Degradado sin nombre 29" x1="248.58" y1="359.2" x2="132.14" y2="317.01" gradientUnits="userSpaceOnUse">
      <stop offset="0" stop-color="#6b5bdf"/>
      <stop offset=".06" stop-color="#6754db"/>
      <stop offset=".48" stop-color="#5529c5"/>
      <stop offset=".81" stop-color="#490eb8"/>
      <stop offset="1" stop-color="#4505b3"/>
    </linearGradient>
    <linearGradient id="Degradado_sin_nombre_28" data-name="Degradado sin nombre 28" x1="-450.02" y1="-89.03" x2="-450.02" y2="38.07" gradientTransform="translate(-149.24 545.07) rotate(150) skewX(30)" gradientUnits="userSpaceOnUse">
      <stop offset="0" stop-color="#55d5c6"/>
      <stop offset=".27" stop-color="#4391ad" stop-opacity=".65"/>
      <stop offset=".53" stop-color="#355b99" stop-opacity=".37"/>
      <stop offset=".74" stop-color="#2b348b" stop-opacity=".17"/>
      <stop offset=".9" stop-color="#251b82" stop-opacity=".05"/>
      <stop offset="1" stop-color="#23137f" stop-opacity="0"/>
    </linearGradient>
    <linearGradient id="Degradado_sin_nombre_302" data-name="Degradado sin nombre 302" x1="218.91" y1="315.11" x2="202.11" y2="347.49" gradientUnits="userSpaceOnUse">
      <stop offset="0" stop-color="#705fdf"/>
      <stop offset=".19" stop-color="#6d59dc"/>
      <stop offset=".41" stop-color="#664ad5"/>
      <stop offset=".66" stop-color="#5a32c9"/>
      <stop offset=".92" stop-color="#4a10b8"/>
      <stop offset="1" stop-color="#4505b3"/>
    </linearGradient>
    <linearGradient id="Degradado_sin_nombre_301" data-name="Degradado sin nombre 301" x1="276.04" y1="275.45" x2="268.69" y2="311.44" gradientUnits="userSpaceOnUse">
      <stop offset="0" stop-color="#705fdf"/>
      <stop offset=".24" stop-color="#6e5bdd"/>
      <stop offset=".44" stop-color="#6951d8"/>
      <stop offset=".63" stop-color="#613fcf"/>
      <stop offset=".81" stop-color="#5526c3"/>
      <stop offset=".99" stop-color="#4607b4"/>
      <stop offset="1" stop-color="#4505b3"/>
    </linearGradient>
    <linearGradient id="Degradado_sin_nombre_24" data-name="Degradado sin nombre 24" x1="239.02" y1="158.01" x2="172.85" y2="237.42" gradientUnits="userSpaceOnUse">
      <stop offset=".05" stop-color="#e185bb"/>
      <stop offset="1" stop-color="#ac36a8"/>
    </linearGradient>
    <linearGradient id="Degradado_sin_nombre_19-2" data-name="Degradado sin nombre 19" x1="173.34" y1="284.34" x2="173.34" y2="121.82" xlink:href="#Degradado_sin_nombre_19"/>
    <linearGradient id="Degradado_sin_nombre_23-2" data-name="Degradado sin nombre 23" x1="214.86" y1="151.95" x2="162.58" y2="206.87" xlink:href="#Degradado_sin_nombre_23"/>
    <linearGradient id="Degradado_sin_nombre_22-2" data-name="Degradado sin nombre 22" x1="182.33" y1="219" x2="135.65" y2="268.07" xlink:href="#Degradado_sin_nombre_22"/>
    <linearGradient id="Degradado_sin_nombre_19-3" data-name="Degradado sin nombre 19" x1="127.79" y1="303" x2="127.79" y2="187.85" xlink:href="#Degradado_sin_nombre_19"/>
    <linearGradient id="Degradado_sin_nombre_18" data-name="Degradado sin nombre 18" x1="170.53" y1="209.02" x2="117.86" y2="247.32" gradientUnits="userSpaceOnUse">
      <stop offset=".42" stop-color="#0db1c2"/>
      <stop offset=".58" stop-color="#0aa2b1"/>
      <stop offset=".9" stop-color="#027d85"/>
      <stop offset="1" stop-color="#007177"/>
    </linearGradient>
    <linearGradient id="Degradado_sin_nombre_17" data-name="Degradado sin nombre 17" x1="140.72" y1="250.75" x2="101.7" y2="298.55" gradientUnits="userSpaceOnUse">
      <stop offset="0" stop-color="#7de7e8"/>
      <stop offset=".99" stop-color="#0084e9"/>
    </linearGradient>
    <linearGradient id="Degradado_sin_nombre_16" data-name="Degradado sin nombre 16" x1="83.24" y1="323.27" x2="83.24" y2="242.31" gradientUnits="userSpaceOnUse">
      <stop offset="0" stop-color="#ffe0ad"/>
      <stop offset=".43" stop-color="#ffc291"/>
      <stop offset=".63" stop-color="#ffb187"/>
      <stop offset="1" stop-color="#ff8871"/>
    </linearGradient>
    <linearGradient id="Degradado_sin_nombre_11-2" data-name="Degradado sin nombre 11" x1="124.32" y1="250.93" x2="60.91" y2="294.34" xlink:href="#Degradado_sin_nombre_11"/>
    <linearGradient id="Degradado_sin_nombre_292" data-name="Degradado sin nombre 292" x1="126.66" y1="141.47" x2="87.99" y2="244.59" gradientUnits="userSpaceOnUse">
      <stop offset="0" stop-color="#a29afb"/>
      <stop offset="1" stop-color="#4505b3"/>
    </linearGradient>
    <linearGradient id="Degradado_sin_nombre_292-2" data-name="Degradado sin nombre 292" x1="223.87" y1="9.79" x2="192.93" y2="95.72" xlink:href="#Degradado_sin_nombre_292"/>
    <linearGradient id="Degradado_sin_nombre_292-3" data-name="Degradado sin nombre 292" x1="173.58" y1="62.32" x2="133.19" y2="175.75" xlink:href="#Degradado_sin_nombre_292"/>
    <linearGradient id="Degradado_sin_nombre_292-4" data-name="Degradado sin nombre 292" x1="146.48" y1="204.99" x2="124.62" y2="176.78" xlink:href="#Degradado_sin_nombre_292"/>
    <linearGradient id="Degradado_sin_nombre_292-5" data-name="Degradado sin nombre 292" x1="193.86" y1="132.94" x2="184.92" y2="101.64" xlink:href="#Degradado_sin_nombre_292"/>
    <linearGradient id="Degradado_sin_nombre_4" data-name="Degradado sin nombre 4" x1="166.63" y1="148.6" x2="195.76" y2="129.55" gradientUnits="userSpaceOnUse">
      <stop offset="0" stop-color="#ac36a8" stop-opacity="0"/>
      <stop offset=".14" stop-color="#a336a8" stop-opacity=".1"/>
      <stop offset=".42" stop-color="#8b36a8" stop-opacity=".36"/>
      <stop offset=".81" stop-color="#6636a8" stop-opacity=".78"/>
      <stop offset="1" stop-color="#5337a8"/>
    </linearGradient>
    <linearGradient id="Degradado_sin_nombre_4-2" data-name="Degradado sin nombre 4" x1="127.69" y1="212.33" x2="144.81" y2="201.13" xlink:href="#Degradado_sin_nombre_4"/>
    <linearGradient id="Degradado_sin_nombre_4-3" data-name="Degradado sin nombre 4" x1="71.09" y1="257.98" x2="89.67" y2="245.82" xlink:href="#Degradado_sin_nombre_4"/>
    <linearGradient id="Degradado_sin_nombre_292-6" data-name="Degradado sin nombre 292" x1="42.98" y1="318.21" x2="26.12" y2="380.96" xlink:href="#Degradado_sin_nombre_292"/>
    <linearGradient id="Degradado_sin_nombre_10" data-name="Degradado sin nombre 10" x1="217.76" y1="391.59" x2="66.87" y2="389.02" gradientUnits="userSpaceOnUse">
      <stop offset="0" stop-color="#b6b9fe"/>
      <stop offset="1" stop-color="#5861d6"/>
    </linearGradient>
    <linearGradient id="Degradado_sin_nombre_9" data-name="Degradado sin nombre 9" x1="215.82" y1="378.01" x2="43.92" y2="404.92" gradientUnits="userSpaceOnUse">
      <stop offset="0" stop-color="#e8e9ff"/>
      <stop offset="1" stop-color="#c0c0f6"/>
    </linearGradient>
    <linearGradient id="Degradado_sin_nombre_6" data-name="Degradado sin nombre 6" x1="-1130.4" y1="481.12" x2="-1122.91" y2="459.51" gradientTransform="translate(-1051.89 105.33) rotate(161.23) scale(1 -1)" gradientUnits="userSpaceOnUse">
      <stop offset=".07" stop-color="#ac5e74"/>
      <stop offset=".57" stop-color="#9b5066"/>
      <stop offset="1" stop-color="#894258"/>
    </linearGradient>
    <linearGradient id="Degradado_sin_nombre_5" data-name="Degradado sin nombre 5" x1="167.18" y1="182.65" x2="155.03" y2="176.57" gradientUnits="userSpaceOnUse">
      <stop offset=".07" stop-color="#73ebff"/>
      <stop offset=".21" stop-color="#6ddaf3"/>
      <stop offset=".47" stop-color="#5faed6"/>
      <stop offset=".84" stop-color="#4967a8"/>
      <stop offset="1" stop-color="#3f4893"/>
    </linearGradient>
    <linearGradient id="Degradado_sin_nombre_8" data-name="Degradado sin nombre 8" x1="-1153.05" y1="188.92" x2="-1132.63" y2="188.92" gradientTransform="translate(-993.39) rotate(-180) scale(1 -1)" gradientUnits="userSpaceOnUse">
      <stop offset=".07" stop-color="#fff"/>
      <stop offset=".35" stop-color="#eeeff1"/>
      <stop offset=".89" stop-color="#c2c8cd"/>
      <stop offset="1" stop-color="#b9c0c6"/>
    </linearGradient>
    <linearGradient id="Degradado_sin_nombre_6-2" data-name="Degradado sin nombre 6" x1="-1148.6" y1="167.5" x2="-1132.47" y2="162.02" gradientTransform="translate(-860.41 -394.53) rotate(-159.21) scale(1 -1)" xlink:href="#Degradado_sin_nombre_6"/>
    <linearGradient id="Degradado_sin_nombre_7" data-name="Degradado sin nombre 7" x1="-1497.01" y1="210.04" x2="-1527.72" y2="199.24" gradientTransform="translate(-1361.77) rotate(-180) scale(1 -1)" gradientUnits="userSpaceOnUse">
      <stop offset="0" stop-color="#fff"/>
      <stop offset=".58" stop-color="#dae3fc"/>
      <stop offset="1" stop-color="#bdcefa"/>
    </linearGradient>
    <linearGradient id="Degradado_sin_nombre_6-3" data-name="Degradado sin nombre 6" x1="-1006.94" y1="719.27" x2="-1006.94" y2="694.98" gradientTransform="translate(-1080.89 201.86) rotate(144.53) scale(1 -1)" xlink:href="#Degradado_sin_nombre_6"/>
    <linearGradient id="Degradado_sin_nombre_5-2" data-name="Degradado sin nombre 5" x1="149.09" y1="189.41" x2="136.67" y2="180.95" xlink:href="#Degradado_sin_nombre_5"/>
    <linearGradient id="Degradado_sin_nombre_4-4" data-name="Degradado sin nombre 4" x1="234.35" y1="338.8" x2="275.57" y2="312.73" xlink:href="#Degradado_sin_nombre_4"/>
    <linearGradient id="Degradado_sin_nombre_4-5" data-name="Degradado sin nombre 4" x1="287.83" y1="242.74" x2="307.83" y2="227.74" xlink:href="#Degradado_sin_nombre_4"/>
    <linearGradient id="Degradado_sin_nombre_2" data-name="Degradado sin nombre 2" x1="149.66" y1="68.52" x2="146.97" y2="46.99" gradientTransform="translate(175.23 262.29) rotate(-16.91) scale(1 -1)" gradientUnits="userSpaceOnUse">
      <stop offset=".07" stop-color="#fcc4b7"/>
      <stop offset=".31" stop-color="#f6b8a6"/>
      <stop offset=".79" stop-color="#e89a7a"/>
      <stop offset="1" stop-color="#e28c66"/>
    </linearGradient>
    <linearGradient id="Degradado_sin_nombre_3" data-name="Degradado sin nombre 3" x1="-1000" y1="232.18" x2="-1000" y2="202.01" gradientTransform="translate(-687.79) rotate(-180) scale(1 -1)" gradientUnits="userSpaceOnUse">
      <stop offset=".07" stop-color="#3a55ca"/>
      <stop offset=".27" stop-color="#344cb9"/>
      <stop offset=".66" stop-color="#27368d"/>
      <stop offset="1" stop-color="#1b2062"/>
    </linearGradient>
    <linearGradient id="Degradado_sin_nombre_3-2" data-name="Degradado sin nombre 3" x1="-992.09" y1="228" x2="-992.09" y2="197.45" xlink:href="#Degradado_sin_nombre_3"/>
    <linearGradient id="Degradado_sin_nombre_2-2" data-name="Degradado sin nombre 2" x1="-991.91" y1="176.16" x2="-1002.91" y2="162.41" gradientTransform="translate(-276.11 -655.98) rotate(-135) scale(1 -1)" xlink:href="#Degradado_sin_nombre_2"/>
    <linearGradient id="Degradado_sin_nombre_2-3" data-name="Degradado sin nombre 2" x1="148.75" y1="234.35" x2="148.75" y2="212.82" gradientTransform="translate(170.25 397.58) rotate(-.77) scale(1 -1)" xlink:href="#Degradado_sin_nombre_2"/>
    <linearGradient id="Degradado_sin_nombre_2-4" data-name="Degradado sin nombre 2" x1="255.56" y1="325.72" x2="255.56" y2="301.8" gradientTransform="matrix(1,0,0,1,0,0)" xlink:href="#Degradado_sin_nombre_2"/>
    <linearGradient id="Degradado_sin_nombre_2-5" data-name="Degradado sin nombre 2" x1="276.67" y1="291.46" x2="263" y2="266.23" gradientTransform="matrix(1,0,0,1,0,0)" xlink:href="#Degradado_sin_nombre_2"/>
    <linearGradient id="Degradado_sin_nombre_2-6" data-name="Degradado sin nombre 2" x1="239.05" y1="295.5" x2="249.98" y2="270.69" gradientTransform="matrix(1,0,0,1,0,0)" xlink:href="#Degradado_sin_nombre_2"/>
    <linearGradient id="Degradado_sin_nombre_2-7" data-name="Degradado sin nombre 2" x1="267.82" y1="259.05" x2="248.48" y2="257.79" gradientTransform="matrix(1,0,0,1,0,0)" xlink:href="#Degradado_sin_nombre_2"/>
  </defs>
  <g class="cls-80">
    <g id="Layer_2" data-name="Layer 2">
      <g id="OBJECTS">
        <g>
          <g>
            <g>
              <path class="cls-71" d="M171.94,134.53L19.73,222.41c-4.89,2.82-8.9-.2-8.9-6.72v-109.75c0-6.52,4-14.17,8.9-17L171.94,1.06c4.89-2.82,8.9.2,8.9,6.72v109.75c0,6.52-4,14.17-8.9,17Z"/>
              <path class="cls-61" d="M149.55,51.31l-18.23,47.48c-4.46,11.62-16.06,17.13-19.07,9.06l-6.66-17.82c-3.54-9.47-17.42-2.13-21.79,11.52l-14.79,46.23c-3.42,10.69-13.96,17.34-18.06,11.39-7.35-10.66-25.29-2.21-34.88,16.42l-5.23,10.17v29.93c0,6.52,4,9.55,8.9,6.72l152.21-87.88c4.89-2.82,8.9-10.47,8.9-17v-47.31l-18.96-26.14c-2.78-3.84-9.62.17-12.33,7.23Z"/>
              <polygon class="cls-34" points="180.84 99.92 10.84 198.07 10.84 195.59 180.84 97.44 180.84 99.92"/>
              <polygon class="cls-34" points="180.84 68.6 10.84 166.75 10.84 164.27 180.84 66.12 180.84 68.6"/>
              <polygon class="cls-34" points="180.84 37.29 10.84 135.44 10.84 132.96 180.84 34.81 180.84 37.29"/>
              <g>
                <polygon class="cls-34" points="8.25 140.16 0 144.92 0 135.39 8.25 130.63 8.25 140.16"/>
                <polygon class="cls-34" points="8.25 171.77 0 176.53 0 167 8.25 162.24 8.25 171.77"/>
                <polygon class="cls-34" points="8.25 203.38 0 208.14 0 198.61 8.25 193.85 8.25 203.38"/>
              </g>
            </g>
            <path class="cls-6" d="M186.83,142.54L34.62,230.42c-4.89,2.82-8.9-.2-8.9-6.72v-109.75c0-6.52,4-14.17,8.9-17L186.83,9.07c4.89-2.82,8.89.2,8.89,6.72v109.75c0,6.52-4,14.17-8.89,17Z"/>
          </g>
          <g>
            <path class="cls-16" d="M307.99,231.57l21.33,15.73c-13.71,6.19-33.48,5.5-45.79-1.61-5.18-2.99-8.58-6.85-9.72-11.03l34.18-3.1Z"/>
            <path class="cls-10" d="M307.99,231.57l4.24-19.83c7.65.55,14.77,2.55,20.23,5.7,13.42,7.75,13.42,20.5,0,28.25-.99.57-2.04,1.11-3.14,1.61l-21.33-15.73Z"/>
            <path class="cls-74" d="M307.99,231.57l-34.18,3.1c-1.71-6.3,1.9-12.71,9.72-17.22,7.53-4.35,18.13-6.45,28.7-5.7l-4.24,19.83Z"/>
            <path class="cls-60" d="M283.52,245.69c-5.18-2.99-8.58-6.85-9.72-11.03v44.69c1.13,4.18,4.54,8.04,9.72,11.03,12.31,7.11,32.08,7.8,45.79,1.61v-44.69c-13.71,6.19-33.48,5.5-45.79-1.61Z"/>
            <path class="cls-27" d="M273.4,231.28v.64c0-.21,0-.42,0-.64Z"/>
            <path class="cls-20" d="M332.45,245.69c-.99.57-2.04,1.11-3.14,1.61v44.69c1.1-.5,2.15-1.03,3.14-1.61,6.75-3.9,10.1-9.06,10.06-14.22v-44.33c0-.06,0-.12,0-.18-.04,5.09-3.39,10.18-10.06,14.03Z"/>
            <path class="cls-75" d="M332.45,245.69c-.99.57-2.04,1.11-3.14,1.61v44.69c1.1-.5,2.15-1.03,3.14-1.61,6.75-3.9,10.1-9.06,10.06-14.22v-44.33c0-.06,0-.12,0-.18-.04,5.09-3.39,10.18-10.06,14.03Z"/>
            <path class="cls-7" d="M273.41,231.92c.03.91.15,1.83.4,2.75l-.4-2.75Z"/>
            <path class="cls-24" d="M273.41,231.92v-.04s0,43.92,0,43.92c-.05,1.18.08,2.38.41,3.56v-44.69c-.25-.92-.37-1.83-.4-2.75Z"/>
            <path class="cls-47" d="M273.41,231.92v-.04s0,43.92,0,43.92c-.05,1.18.08,2.38.41,3.56v-44.69c-.25-.92-.37-1.83-.4-2.75Z"/>
          </g>
          <g>
            <g>
              <g>
                <g>
                  <path class="cls-66" d="M250.98,252.53l-124.31,71.77c-9.06,5.23-25.04,4.57-35.51-1.47l-57.24-32.68c-10.47-6.04-11.61-15.27-2.55-20.5l124.31-71.77c9.06-5.23,25.04-4.57,35.51,1.47l57.24,32.68c10.47,6.04,11.61,15.27,2.55,20.5Z"/>
                  <g>
                    <path class="cls-12" d="M256.93,267.56v-22.28s0,0,0,0h0c-.56,2.73-2.52,5.28-5.94,7.25l-124.31,71.77c-4.36,2.51-10.32,3.63-16.49,3.48v25.49c6.17.15,12.13-.97,16.49-3.48l124.31-71.77c4.74-2.74,6.66-6.57,5.94-10.46Z"/>
                    <path class="cls-37" d="M91.17,322.83l-57.24-32.68c-4.99-2.88-7.84-6.49-8.49-10.04v22.28c-.92,4.5,1.98,9.49,8.49,13.25l57.24,32.68c5.44,3.14,12.35,4.79,19.02,4.95v-25.49c-6.67-.16-13.58-1.82-19.02-4.95Z"/>
                    <path class="cls-70" d="M91.17,322.83l-57.24-32.68c-4.99-2.88-7.84-6.49-8.49-10.04v22.28c-.92,4.5,1.98,9.49,8.49,13.25l57.24,32.68c5.44,3.14,12.35,4.79,19.02,4.95v-25.49c-6.67-.16-13.58-1.82-19.02-4.95Z"/>
                  </g>
                </g>
                <g>
                  <g>
                    <polygon class="cls-66" points="150.1 310.77 224.54 267.79 322.58 330.48 251.25 371.66 150.1 310.77"/>
                    <polygon class="cls-40" points="150.1 310.77 150.1 336.26 251.25 371.66 150.1 310.77"/>
                  </g>
                  <polygon class="cls-39" points="181.09 306.93 210.6 292.18 346.59 360.17 317.08 374.92 181.09 306.93"/>
                  <g>
                    <g>
                      <path class="cls-70" d="M210.62,338.59c1.15-.67,1.15-1.74,0-2.41-1.15-.67-3.02-.67-4.17,0-1.15.67-1.15,1.74,0,2.41s3.02.67,4.17,0ZM201.03,333.05c1.15-.67,1.15-1.74,0-2.41-1.15-.67-3.02-.67-4.17,0-1.15.67-1.15,1.74,0,2.41,1.15.67,3.02.67,4.17,0ZM191.43,327.51c1.15-.67,1.15-1.74,0-2.41-1.15-.67-3.02-.67-4.17,0-1.15.67-1.15,1.74,0,2.41,1.15.67,3.02.67,4.17,0ZM181.84,321.97c1.15-.67,1.15-1.74,0-2.41-1.15-.67-3.02-.67-4.17,0-1.15.67-1.15,1.74,0,2.41s3.02.67,4.17,0ZM249,360.75c1.15-.67,1.15-1.74,0-2.41-1.15-.67-3.02-.67-4.17,0-1.15.67-1.15,1.74,0,2.41,1.15.67,3.02.67,4.17,0ZM239.41,355.21c1.15-.67,1.15-1.74,0-2.41-1.15-.67-3.02-.67-4.17,0-1.15.67-1.15,1.74,0,2.41,1.15.67,3.02.67,4.17,0ZM229.81,349.67c1.15-.67,1.15-1.74,0-2.41-1.15-.67-3.02-.67-4.17,0-1.15.67-1.15,1.74,0,2.41,1.15.67,3.02.67,4.17,0ZM220.22,344.13c1.15-.67,1.15-1.74,0-2.41-1.15-.67-3.02-.67-4.17,0-1.15.67-1.15,1.74,0,2.41s3.02.67,4.17,0Z"/>
                      <path class="cls-52" d="M247.71,328.62l-67.16-38.82c-.49-.28-1.09-.28-1.58,0-.49.28-.79.8-.79,1.37v30.7c0,.12.02.23.04.34.94.34,2.14.34,3.08,0,.02-.11.04-.22.04-.34v-27.96l16.03,9.26v29.59c0,.2.04.38.1.55.91.31,2.04.31,2.95,0,.06-.17.1-.36.1-.55v-27.76l25.62,14.81v29.36c0,.29.08.56.22.8.85.26,1.86.26,2.72,0,.14-.24.22-.51.22-.8v-27.53l16.03,9.26v29.79c0,.1.01.2.03.29.95.34,2.15.34,3.1,0,.02-.09.03-.19.03-.29v-30.71c0-.56-.3-1.09-.79-1.37Z"/>
                    </g>
                    <g>
                      <path class="cls-70" d="M270.04,304.16c1.15-.67,1.15-1.74,0-2.41-1.15-.67-3.02-.67-4.17,0-1.15.67-1.15,1.74,0,2.41,1.15.67,3.02.67,4.17,0ZM260.44,298.62c1.15-.67,1.15-1.74,0-2.41-1.15-.67-3.02-.67-4.17,0-1.15.67-1.15,1.74,0,2.41,1.15.67,3.02.67,4.17,0ZM250.85,293.08c1.15-.67,1.15-1.74,0-2.41-1.15-.67-3.02-.67-4.17,0-1.15.67-1.15,1.74,0,2.41,1.15.67,3.02.67,4.17,0ZM241.25,287.54c1.15-.67,1.15-1.74,0-2.41s-3.02-.67-4.17,0-1.15,1.74,0,2.41c1.15.67,3.02.67,4.17,0ZM308.41,326.31c1.15-.67,1.15-1.74,0-2.41-1.15-.67-3.02-.67-4.17,0s-1.15,1.74,0,2.41,3.02.67,4.17,0ZM298.82,320.77c1.15-.67,1.15-1.74,0-2.41-1.15-.67-3.02-.67-4.17,0-1.15.67-1.15,1.74,0,2.41,1.15.67,3.02.67,4.17,0ZM289.22,315.23c1.15-.67,1.15-1.74,0-2.41-1.15-.67-3.02-.67-4.17,0-1.15.67-1.15,1.74,0,2.41,1.15.67,3.02.67,4.17,0ZM279.63,309.69c1.15-.67,1.15-1.74,0-2.41s-3.02-.67-4.17,0c-1.15.67-1.15,1.74,0,2.41,1.15.67,3.02.67,4.17,0Z"/>
                      <path class="cls-28" d="M307.13,294.19l-67.16-38.82c-.49-.28-1.09-.28-1.58,0-.49.28-.79.8-.79,1.37v30.7c0,.12.02.23.04.34.94.34,2.14.34,3.08,0,.02-.11.04-.22.04-.34v-27.96l16.03,9.26v29.59c0,.2.04.38.1.55.91.31,2.04.31,2.95,0,.06-.17.1-.36.1-.55v-27.76l25.62,14.81v29.36c0,.29.09.56.22.8.85.26,1.86.26,2.72,0,.14-.24.22-.51.22-.8v-27.53l16.03,9.26v29.79c0,.1.01.2.03.29.95.34,2.15.34,3.1,0,.02-.09.03-.19.03-.29v-30.71c0-.56-.3-1.09-.79-1.37Z"/>
                    </g>
                  </g>
                </g>
              </g>
              <g>
                <g>
                  <g>
                    <path class="cls-16" d="M223.12,134.68l-28.88,16.68c-2.11,1.22-5.82,1.06-8.25-.34l-27.7-15.99c-2.43-1.4-2.7-3.55-.59-4.76l28.88-16.68c2.11-1.22,5.82-1.06,8.25.34l27.7,15.99c2.43,1.4,2.7,3.55.59,4.76Z"/>
                    <g>
                      <path class="cls-59" d="M224.5,238.49v-105.49h0c-.13.63-.59,1.23-1.38,1.68l-28.88,16.68c-1.01.58-2.4.84-3.83.81v106.23c1.43.04,2.82-.22,3.83-.81l28.88-16.68c1.1-.64,1.55-1.53,1.38-2.43Z"/>
                      <path class="cls-76" d="M185.99,151.02l-27.7-15.99c-1.16-.67-1.82-1.51-1.97-2.33v105.49c-.21,1.04.46,2.2,1.97,3.08l27.7,15.99c1.26.73,2.87,1.11,4.42,1.15v-106.23c-1.55-.04-3.16-.42-4.42-1.15Z"/>
                      <path class="cls-23" d="M185.99,151.02l-27.7-15.99c-1.16-.67-1.82-1.51-1.97-2.33v105.49c-.21,1.04.46,2.2,1.97,3.08l27.7,15.99c1.26.73,2.87,1.11,4.42,1.15v-106.23c-1.55-.04-3.16-.42-4.42-1.15Z"/>
                    </g>
                  </g>
                  <g>
                    <path class="cls-10" d="M177.57,197.54l-28.88,16.68c-2.11,1.22-5.82,1.06-8.25-.34l-27.7-15.99c-2.43-1.4-2.7-3.55-.59-4.76l28.88-16.68c2.11-1.22,5.82-1.06,8.25.34l27.7,15.99c2.43,1.4,2.7,3.55.59,4.76Z"/>
                    <g>
                      <path class="cls-53" d="M178.95,264.71v-68.85s0,0,0,0h0c-.13.63-.59,1.23-1.38,1.69l-28.88,16.68c-1.01.58-2.4.84-3.83.81v69.6c1.43.04,2.82-.22,3.83-.81l28.88-16.68c1.1-.64,1.55-1.53,1.38-2.43Z"/>
                      <path class="cls-79" d="M140.44,213.88l-27.7-15.99c-1.16-.67-1.82-1.51-1.97-2.33v68.85c-.21,1.04.46,2.2,1.97,3.08l27.7,15.99c1.26.73,2.87,1.11,4.42,1.15v-69.6c-1.55-.04-3.16-.42-4.42-1.15Z"/>
                      <path class="cls-45" d="M140.44,213.88l-27.7-15.99c-1.16-.67-1.82-1.51-1.97-2.33v68.85c-.21,1.04.46,2.2,1.97,3.08l27.7,15.99c1.26.73,2.87,1.11,4.42,1.15v-69.6c-1.55-.04-3.16-.42-4.42-1.15Z"/>
                    </g>
                  </g>
                  <g>
                    <path class="cls-74" d="M133.02,249.72l-28.88,16.68c-2.11,1.22-5.82,1.06-8.25-.34l-27.7-15.99c-2.43-1.4-2.7-3.55-.59-4.76l28.88-16.68c2.11-1.22,5.82-1.06,8.25.34l27.7,15.99c2.43,1.4,2.7,3.55.59,4.76Z"/>
                    <g>
                      <path class="cls-2" d="M134.41,290.43v-42.4s0,0,0,0h0c-.13.63-.59,1.23-1.38,1.69l-28.88,16.68c-1.01.58-2.4.84-3.83.81v43.15c1.43.04,2.82-.22,3.83-.81l28.88-16.68c1.1-.64,1.55-1.53,1.38-2.43Z"/>
                      <path class="cls-67" d="M95.89,266.05l-27.7-15.99c-1.16-.67-1.82-1.51-1.97-2.33v42.4c-.21,1.04.46,2.2,1.97,3.08l27.7,15.99c1.26.73,2.87,1.11,4.42,1.15v-43.15c-1.55-.04-3.16-.42-4.42-1.15Z"/>
                      <path class="cls-14" d="M95.89,266.05l-27.7-15.99c-1.16-.67-1.82-1.51-1.97-2.33v42.4c-.21,1.04.46,2.2,1.97,3.08l27.7,15.99c1.26.73,2.87,1.11,4.42,1.15v-43.15c-1.55-.04-3.16-.42-4.42-1.15Z"/>
                    </g>
                  </g>
                </g>
                <g>
                  <path class="cls-66" d="M239.12,44.55l-.37-28.1-21.06,26.69,6.73.44-24.27,64.3-15.79-36.35-37.82,111-21.15-29.2-3.8,10.59c-.07.2-7.32,20.42-14.47,40.54-15.03,42.33-14.41,42.53-14.89,44.58,0,0,8.91-4.08,8.89-3.98.99-3.63,14.44-41.51,24.75-70.35l21.41,29.55,36.24-106.38,15.27,35.17,33.57-88.95,6.74.44Z"/>
                  <g>
                    <path class="cls-8" d="M121.6,163.91l3.78-10.55-7.52-4.25-3.8,10.59c-.07.2-7.32,20.42-14.47,40.54-15.03,42.33-14.41,42.53-14.89,44.58l7.53,4.21c.48-2.05-.15-2.25,14.89-44.58,7.14-20.12,14.39-40.34,14.47-40.54Z"/>
                    <polygon class="cls-4" points="224.42 43.57 217.69 43.13 238.74 16.44 231.21 12.23 210.16 38.92 215.87 42.09 195.28 96.64 184.37 71.52 200.16 107.87 224.42 43.57"/>
                    <polygon class="cls-38" points="184.37 71.52 176.84 67.31 140.45 174.1 125.4 153.32 146.55 182.52 184.37 71.52"/>
                    <path class="cls-55" d="M124.41,178.85l15.36,21.2v-.04s7.53,4.25,7.53,4.25l-21.41-29.55c-.9,2.51-1.9,5.32-1.48,4.14Z"/>
                    <polygon class="cls-64" points="181.03 105.24 191.28 128.84 198.81 133.05 183.54 97.88 181.03 105.24"/>
                  </g>
                </g>
              </g>
            </g>
            <polygon class="cls-48" points="191.28 128.84 169.28 141.37 176.92 145.78 198.81 133.05 191.28 128.84"/>
            <polygon class="cls-25" points="139.78 200 128.55 207.02 135.76 211.18 147.3 204.25 139.78 200"/>
            <polygon class="cls-54" points="84.72 244.82 72.14 252.4 79.73 256.71 92.25 249.03 84.72 244.82"/>
          </g>
          <g>
            <ellipse class="cls-12" cx="49.71" cy="352.37" rx="33.75" ry="19.49" transform="translate(-280.31 219.23) rotate(-60)"/>
            <path class="cls-66" d="M49.71,326.37c12.96-7.48,23.49-1.64,23.85,13.01,0-.26.02-.53.02-.79,0-15.22-10.69-21.39-23.87-13.78-13.18,7.61-23.87,26.12-23.87,41.34,0,.26.01.51.02.77.36-15.07,10.89-33.07,23.85-40.55Z"/>
            <path class="cls-73" d="M25.84,366.15c0-15.22,10.69-33.73,23.87-41.34,6.56-3.79,12.5-4.16,16.81-1.7l-16.47-9.75c-4.33-2.56-10.34-2.23-16.98,1.61-13.18,7.61-23.87,26.12-23.87,41.34,0,7.65,2.7,13.01,7.05,15.48l16.47,9.75c-4.26-2.52-6.89-7.84-6.89-15.39Z"/>
            <path class="cls-10" d="M32.83,362.12c0-10.76,7.56-23.85,16.88-29.23.35-.2.69-.37,1.03-.54v-2.87c-.34.18-.68.34-1.03.54-10.69,6.17-19.36,21.18-19.36,33.53,0,11.47,7.48,16.6,17.12,12.32.03-.98.05-1.95.06-2.93-8.29,3.55-14.7-.91-14.7-10.82Z"/>
            <path class="cls-49" d="M68.85,337.93c-.84.52-1.7,1.02-2.52,1.56.16.98.26,2.02.26,3.14,0,10.76-7.56,23.85-16.88,29.23-.74.43-1.46.77-2.18,1.08-.01.98-.04,1.95-.06,2.93.73-.33,1.48-.7,2.24-1.14,10.69-6.17,19.36-21.18,19.36-33.53,0-1.15-.08-2.24-.22-3.27Z"/>
            <path class="cls-46" d="M66.33,339.49c.81-.55,1.67-1.05,2.52-1.56-1.37-9.56-8.88-13.21-18.1-8.45v2.87c7.88-4,14.29-.91,15.59,7.15Z"/>
            <g>
              <path class="cls-10" d="M41.34,359.59v1.53l-4.45,2.57v-1.53l1.56-.9v-3.83c-.06.14-.17.3-.31.49-.14.19-.3.38-.47.57-.17.19-.34.37-.52.53-.18.16-.34.28-.48.36v-1.58c.13-.08.29-.22.48-.42.19-.21.38-.43.56-.67.18-.24.34-.46.48-.67.13-.21.22-.36.26-.46l1.5-.87v5.69l1.39-.8Z"/>
              <path class="cls-10" d="M47.8,353.69c0,.56-.07,1.11-.21,1.66-.14.55-.34,1.07-.59,1.56-.25.49-.55.93-.9,1.32-.35.39-.72.7-1.12.93-.41.24-.78.36-1.13.37-.34,0-.64-.08-.89-.28-.25-.2-.45-.49-.59-.87-.14-.39-.21-.86-.21-1.41s.07-1.11.21-1.66c.14-.55.34-1.07.59-1.56.25-.49.55-.93.89-1.32.34-.39.72-.71,1.13-.94.4-.23.78-.35,1.12-.36.35,0,.65.09.9.28.25.2.45.49.59.87.14.39.21.86.21,1.41ZM46.32,354.54c0-.34-.03-.63-.1-.87-.07-.24-.16-.43-.28-.57-.12-.13-.26-.21-.43-.22-.17-.01-.34.04-.54.15-.2.12-.39.28-.55.48-.16.2-.31.44-.43.71-.12.27-.21.57-.28.89-.07.32-.1.65-.1.99s.03.63.1.87c.07.24.16.43.28.56.12.13.26.21.43.22.16.01.35-.04.55-.16.2-.11.38-.27.54-.48.16-.2.31-.44.43-.72.12-.27.21-.57.28-.88.07-.32.1-.64.1-.98Z"/>
              <path class="cls-10" d="M54.52,349.8c0,.56-.07,1.11-.21,1.66-.14.55-.34,1.07-.59,1.55-.25.49-.55.93-.9,1.32-.35.39-.72.7-1.12.93-.41.24-.78.36-1.13.37-.34,0-.64-.08-.89-.28-.25-.2-.45-.49-.59-.87-.14-.39-.21-.86-.21-1.41s.07-1.11.21-1.66c.14-.55.34-1.07.59-1.56.25-.49.55-.93.89-1.32.34-.39.72-.71,1.13-.94.4-.23.78-.35,1.12-.36.35,0,.65.09.9.28.25.2.45.49.59.87.14.39.21.86.21,1.41ZM53.04,350.66c0-.34-.03-.63-.1-.87-.06-.24-.16-.43-.28-.57-.12-.13-.26-.21-.43-.22-.16-.01-.34.04-.54.15-.2.12-.39.28-.55.48-.16.2-.31.44-.43.71-.12.27-.21.57-.28.89-.06.32-.1.65-.1.99s.03.63.1.87c.07.24.16.43.28.56.12.13.26.21.43.22.16.01.35-.04.55-.16.2-.11.38-.27.54-.48.16-.2.31-.44.43-.71.12-.27.21-.57.28-.88.07-.32.1-.64.1-.98Z"/>
              <path class="cls-10" d="M57.25,346.66c-.26.15-.49.23-.71.26-.22.03-.41,0-.57-.08-.16-.08-.29-.21-.38-.39-.1-.18-.14-.4-.14-.67s.05-.54.14-.83c.09-.29.22-.57.38-.83.16-.26.35-.51.57-.73.22-.23.46-.41.71-.56.25-.14.48-.23.71-.26.22-.03.41,0,.57.07.16.08.29.2.38.39.09.18.14.4.14.66s-.05.55-.14.83c-.09.29-.22.56-.38.83-.16.27-.35.51-.57.74-.22.23-.46.42-.71.56ZM56.06,352.03l3.09-5.94,2.85-5.97.67.3-2.99,5.81-2.95,6.1-.67-.3ZM57.25,345.81c.11-.06.21-.15.3-.26.09-.11.17-.24.25-.38.07-.14.13-.28.17-.44.04-.15.06-.3.06-.45,0-.29-.08-.5-.23-.62-.15-.12-.34-.12-.55,0-.11.06-.21.15-.3.26-.09.11-.17.24-.25.38-.07.14-.13.28-.17.43-.04.15-.06.3-.06.44,0,.3.08.5.23.63.15.12.34.12.55,0ZM61.48,349.62c-.26.15-.49.23-.71.26-.22.03-.41,0-.57-.08-.16-.08-.29-.2-.38-.38-.09-.18-.14-.4-.14-.67s.05-.55.14-.83c.09-.29.22-.56.38-.83.16-.26.35-.51.57-.74.22-.23.46-.41.71-.56.26-.15.49-.23.71-.26.22-.03.41,0,.58.08.16.08.29.21.38.39.09.18.14.4.14.67s-.05.55-.14.83c-.09.28-.22.56-.38.82-.16.26-.36.51-.58.74-.22.23-.46.42-.71.56ZM61.48,348.77c.11-.06.21-.15.3-.26.09-.11.17-.24.25-.38.07-.14.13-.28.17-.43.04-.15.06-.3.06-.44,0-.15-.02-.28-.07-.39-.04-.11-.1-.19-.17-.24-.07-.06-.15-.09-.25-.09-.1,0-.19.03-.3.09-.11.06-.21.15-.3.26-.09.11-.17.24-.25.38-.07.14-.13.29-.17.44-.04.15-.06.3-.06.45,0,.3.08.5.23.62.15.12.34.12.55,0Z"/>
            </g>
          </g>
          <g>
            <g>
              <path class="cls-65" d="M214.19,392.89l-56.2,32.44c-2.28,1.31-6.29,1.15-8.91-.37l-54.92-31.71c-2.63-1.52-2.92-3.83-.64-5.15l56.2-32.44c2.28-1.31,6.29-1.15,8.91.37l54.92,31.71c2.63,1.52,2.92,3.83.64,5.15Z"/>
              <path class="cls-44" d="M214.19,390.1l-56.2,32.44c-2.28,1.31-6.29,1.15-8.91-.37l-54.92-31.71c-2.63-1.52-2.92-3.83-.64-5.15l56.2-32.44c2.28-1.31,6.29-1.15,8.91.37l54.92,31.71c2.63,1.52,2.92,3.83.64,5.15Z"/>
              <g>
                <path class="cls-66" d="M148.27,407.98l9.44-5.45c1.74-1.01,1.53-2.77-.49-3.93l-2.24-1.29c-2.01-1.16-5.06-1.29-6.81-.28l-9.44,5.45c-1.74,1.01-1.53,2.77.49,3.93l2.24,1.29c2.01,1.16,5.06,1.29,6.81.28Z"/>
                <path class="cls-66" d="M178.93,379.27l-21.24,12.26c-1.74,1.01-1.53,2.77.49,3.93l2.24,1.29c2.01,1.16,5.06,1.29,6.81.28l21.24-12.26c1.74-1.01,1.53-2.77-.49-3.93l-2.24-1.29c-2.01-1.16-5.06-1.29-6.81-.28Z"/>
                <polygon class="cls-66" points="151.12 413.28 197.64 386.42 195.47 385.17 148.95 412.02 151.12 413.28"/>
                <polygon class="cls-66" points="154.21 415.06 186.95 396.16 184.78 394.9 152.04 413.8 154.21 415.06"/>
              </g>
            </g>
            <path class="cls-66" d="M176.24,376.22l-42.79,24.7c-1.62.94-4.48.82-6.35-.26l-21.31-12.3c-1.87-1.08-2.08-2.73-.46-3.67l42.79-24.7c1.62-.94,4.48-.82,6.35.26l21.31,12.3c1.87,1.08,2.08,2.73.46,3.67Z"/>
          </g>
          <g>
            <g>
              <g>
                <g>
                  <path class="cls-77" d="M173.07,197.89h0c-1.16.82-2.77.54-3.59-.62l-11.61-16.44c-.82-1.16-.54-2.77.62-3.59h0c1.16-.82,2.77-.54,3.59.62l11.61,16.44c.82,1.16.54,2.77-.62,3.59Z"/>
                  <path class="cls-72" d="M165.06,179.64l-3.75-5.3c-1.26-1.79-3.76-2.22-5.55-.96h0c-1.79,1.26-2.22,3.76-.96,5.55l3.75,5.3s4.41,1.4,6.51-4.6Z"/>
                </g>
                <path class="cls-58" d="M151.98,200.7c.15.23.35.41.59.54l13.56,7.76c1.48.85,3.56.02,4.63-1.84h0c1.07-1.86.73-4.08-.74-4.92l-15.6-8.93c-.37-.22-.85-.16-1.16.13-1.14,1.07-3.47,3.83-1.27,7.26Z"/>
                <path class="cls-57" d="M143.01,205.3c.15.23.35.41.59.54l13.56,7.76c1.48.85,3.56.02,4.63-1.84h0c1.07-1.86.73-4.08-.74-4.92l-15.6-8.93c-.37-.22-.85-.16-1.16.13-1.14,1.07-3.47,3.83-1.27,7.26Z"/>
                <g>
                  <g>
                    <path class="cls-78" d="M164.22,228.64c-.11,1.12,2.58,1.82,4.84,3.13,3.14,1.81,6.52,2.8,8.13,1.87.41-.24.6-.54.61-.88v-1.84c.06-1.04-1.5-2.63-3.85-4.93-2.6-2.53-4.25-4.11-8.13-1.87-1.11.64-1.55,1.12-1.56,1.53l-.04,3Z"/>
                    <path class="cls-43" d="M173.95,225.97c3.14,3.06,4.85,4.86,3.24,5.79-1.61.93-4.83-.47-8.13-2.97-2.89-2.19-7.12-2.45-3.24-4.7,3.88-2.24,5.54-.66,8.13,1.87Z"/>
                  </g>
                  <path class="cls-58" d="M171.44,223.76c.13-.24.18-.51.18-.78v-18.14c0-1.7-1.76-3.1-3.9-3.1h0c-2.15,0-3.9,1.39-3.9,3.1v20.49c0,.43.28.82.69.94,1.5.45,5.05,1.1,6.93-2.51Z"/>
                </g>
                <path class="cls-11" d="M144.35,206.88c.1.06.21.1.33.11,1.73.13,7.93-1.22,14.13-8.21.51-.58.84-1.36.84-2.01v-19.84c0-1.5-.53-2.54-1.39-3.03l-4.67-2.72c-.85-.51-2.03-.44-3.32.3l-6.36,3.67c-2.57,1.48-4.67,5.12-4.67,8.09v19.96c0,.46.17.81.45.96l4.67,2.72Z"/>
                <g>
                  <g>
                    <path class="cls-78" d="M154.92,232.75c-.11,1.12,2.58,1.82,4.84,3.13,3.14,1.81,6.52,2.8,8.13,1.87.41-.24.6-.54.61-.88v-1.84c.06-1.04-1.5-2.63-3.85-4.93-2.6-2.53-4.25-4.11-8.13-1.87-1.11.64-1.55,1.12-1.56,1.53l-.04,3Z"/>
                    <path class="cls-43" d="M164.65,230.09c3.14,3.06,4.85,4.86,3.24,5.79-1.61.93-4.83-.47-8.13-2.97-2.89-2.19-7.12-2.45-3.24-4.7,3.88-2.24,5.54-.66,8.13,1.87Z"/>
                  </g>
                  <path class="cls-57" d="M162.14,227.87c.13-.24.18-.51.18-.78v-18.14c0-1.7-1.76-3.1-3.9-3.1h0c-2.15,0-3.9,1.39-3.9,3.1v20.49c0,.43.28.82.69.94,1.5.45,5.05,1.1,6.93-2.51Z"/>
                </g>
                <path class="cls-69" d="M145.06,176.39c0,.49.31.99.96,1.36,1.28.74,3.37.74,4.65,0,.65-.38.97-.87.96-1.36v-4.32c0-.49-.31-.99-.96-1.36-1.28-.74-3.37-.74-4.65,0-.65.38-.97.87-.96,1.36v4.32Z"/>
                <circle class="cls-30" cx="148.35" cy="165.17" r="9.06" transform="translate(-48.97 63.42) rotate(-20.79)"/>
                <path class="cls-33" d="M143.49,172.27c.59-.59,1.5-1.67,1.87-3.02.02-.07.03-.15.03-.22v-4.34c0-.86.21-1.72.66-2.45.39-.62.96-1.17,1.77-1.12,0,0,7.27,3.17,9.99-2.75.21-.45-.04-1-.52-1.11-.52-.12-1.21-.57-1.97-1.81-.18-.29-.52-.45-.86-.37-.71.17-2.01.21-3.26-1.2-.15-.17-.37-.26-.6-.26-1.38.03-6.17.26-8.77,2.14-.02.01-.04.03-.05.04-.56.46-9.55,8.12.64,16.51.32.26.79.25,1.08-.04Z"/>
                <path class="cls-68" d="M145.32,170.26c0,1.08-.76,1.52-1.69.98-.94-.54-1.69-1.85-1.69-2.93s.76-1.52,1.69-.98c.94.54,1.69,1.85,1.69,2.93Z"/>
              </g>
              <g>
                <polygon class="cls-42" points="171.03 201.22 154.88 210.51 142.5 203.76 159.02 194.31 171.03 201.22"/>
                <polygon class="cls-36" points="171.03 201.22 173.57 185.03 155.64 195.37 154.88 210.51 171.03 201.22"/>
              </g>
            </g>
            <g>
              <path class="cls-13" d="M156.9,203.99h0c-1.15.82-2.77.55-3.59-.6l-11.68-16.39c-.82-1.15-.55-2.77.6-3.59h0c1.15-.82,2.77-.55,3.59.6l11.68,16.39c.82,1.15.55,2.77-.6,3.59Z"/>
              <path class="cls-26" d="M148.32,186.48l-3.25-5.62c-1.1-1.9-3.55-2.55-5.45-1.45h0c-1.9,1.1-2.55,3.55-1.45,5.45l3.25,5.62s4.27,1.79,6.9-3.99Z"/>
            </g>
          </g>
          <polygon class="cls-31" points="242.27 321.75 220.26 334.27 241.72 346.46 263.61 333.73 242.27 321.75"/>
          <g>
            <polygon class="cls-17" points="299.82 225.39 277.81 237.92 293.76 246.94 315.65 234.21 299.82 225.39"/>
            <g>
              <g>
                <path class="cls-63" d="M298.21,152.68h0c-1.3.25-2.17,1.52-1.92,2.82l3.52,18.52c.25,1.3,1.52,2.17,2.82,1.92h0c1.3-.25,2.17-1.52,1.92-2.82l-3.52-18.52c-.25-1.3-1.52-2.17-2.82-1.92Z"/>
                <path class="cls-70" d="M305.29,169.95l1.14,5.97c.38,2.02-.95,3.98-2.97,4.36h0c-2.02.38-3.98-.95-4.36-2.97l-1.14-5.97s1.93-3.88,7.33-1.39Z"/>
              </g>
              <g>
                <g>
                  <path class="cls-78" d="M315.49,234c.11,1.05-2.42,1.71-4.53,2.93-2.94,1.7-6.11,2.62-7.62,1.75-.38-.22-.56-.5-.58-.83v-1.73c-.05-.98,1.4-2.47,3.61-4.62,2.43-2.37,3.98-3.85,7.62-1.75,1.04.6,1.46,1.05,1.46,1.43l.04,2.81Z"/>
                  <path class="cls-43" d="M306.37,231.51c-2.94,2.86-4.54,4.55-3.03,5.43,1.51.87,4.52-.44,7.62-2.78,2.71-2.05,6.67-2.3,3.03-4.4s-5.19-.62-7.62,1.75Z"/>
                </g>
                <path class="cls-19" d="M308.72,229.43c-.12-.22-.17-.48-.17-.73v-25.22c0-1.59,1.64-2.9,3.65-2.9h0c2.01,0,3.65,1.3,3.65,2.9v27.42c0,.4-.26.76-.65.88-1.4.42-4.73,1.03-6.49-2.35Z"/>
              </g>
              <g>
                <g>
                  <path class="cls-78" d="M307.58,228.17c.11,1.05-2.42,1.71-4.53,2.93-2.94,1.7-6.11,2.62-7.62,1.75-.38-.22-.56-.5-.58-.83v-1.73c-.05-.98,1.4-2.47,3.61-4.62,2.43-2.37,3.98-3.85,7.62-1.75,1.04.6,1.46,1.05,1.46,1.43l.04,2.81Z"/>
                  <path class="cls-43" d="M298.46,225.68c-2.94,2.86-4.54,4.55-3.03,5.43s4.52-.44,7.62-2.78c2.71-2.05,6.67-2.3,3.03-4.4s-5.19-.62-7.62,1.75Z"/>
                </g>
                <path class="cls-35" d="M300.81,223.6c-.12-.22-.17-.48-.17-.73v-25.22c0-1.59,1.64-2.9,3.65-2.9h0c2.01,0,3.65,1.3,3.65,2.9v27.42c0,.4-.26.76-.65.88-1.4.42-4.73,1.03-6.49-2.35Z"/>
              </g>
              <path class="cls-50" d="M314.66,208.02c-.09.06-.19.09-.31.1-1.62.13-7.42-1.14-13.23-7.69-.48-.54-.79-1.27-.79-1.88v-18.58c0-1.4.5-2.38,1.3-2.84l4.37-2.55c.79-.47,1.9-.42,3.11.28l5.96,3.44c2.41,1.39,4.37,4.8,4.37,7.58v18.69c0,.44-.16.75-.42.89l-4.37,2.55Z"/>
              <path class="cls-62" d="M312.96,179.46c0,.46-.29.93-.9,1.28-1.2.69-3.15.69-4.36,0-.61-.35-.91-.82-.9-1.28v-4.05c0-.46.29-.93.9-1.28,1.2-.69,3.15-.69,4.36,0,.61.35.91.82.9,1.28v4.05Z"/>
              <circle class="cls-22" cx="309.89" cy="168.95" r="8.48" transform="translate(-28.7 268.61) rotate(-45)"/>
              <path class="cls-41" d="M316.96,158.92c7.25,2.49,3.64,13.08-1.63,16.9-2.58-1.41.56-3.93-2.96-2.18-.7-3.41.87-2.37-.08-6.66-3.69,1.92-10.86-.41-11.97-3.96,1.28-.57,2.63-4.22,5.63-5.55,3.87-1.72,8.81-.96,11.01,1.45Z"/>
              <path class="cls-5" d="M312.72,173.72c0,1.01.71,1.42,1.59.92.88-.51,1.59-1.74,1.59-2.75s-.71-1.42-1.59-.92c-.88.51-1.59,1.74-1.59,2.75Z"/>
              <g>
                <path class="cls-32" d="M315.8,159.41h0c-1.33.02-2.4,1.12-2.38,2.45l.26,18.85c.02,1.33,1.12,2.4,2.45,2.38h0c1.33-.02,2.4-1.12,2.38-2.45l-.26-18.85c-.02-1.33-1.12-2.4-2.45-2.38Z"/>
                <path class="cls-70" d="M319.77,177.65l.08,6.08c.03,2.05-1.63,3.75-3.68,3.78h0c-2.05.03-3.75-1.63-3.78-3.68l-.08-6.08s2.58-3.49,7.46-.1Z"/>
              </g>
            </g>
          </g>
          <g>
            <g>
              <g>
                <path class="cls-78" d="M240.59,313.1c-.31.14-.43.52-.46,1.06,0,.15,1.59-.92,1.53-.37-.02.16-1.17,7.9,1.3,10.46.27.28.64.22.9.08l.67-.38c.78-.39,1.31-2.18,2.01-4.84.78-2.94,1.25-4.8-1.99-6.7-.92-.55-1.46-.67-1.76-.51l-2.21,1.21Z"/>
                <path class="cls-18" d="M246.55,319.11c-.94,3.55-1.55,5.54-2.89,4.75-1.34-.79-1.65-3.72-1.19-7.16.4-3.01-1.14-6.21,2.09-4.3,3.23,1.91,2.76,3.77,1.99,6.7Z"/>
              </g>
              <path class="cls-51" d="M267.4,296.41l-6.64,2.43-2.7,3.06s-4.78,2.01-8.54,5.96c0,0-1.43,2.09-6.16,4.5,0,0,0,3.3,2.94,3.84l18.93-10.89c1.32-.76,2.2-2.11,2.36-3.63.13-1.23.13-2.94-.2-5.27Z"/>
            </g>
            <g>
              <g>
                <path class="cls-78" d="M253.44,329.86c-.03.34.24.63.69.92.13.08-.02-1.84.43-1.52.13.09,6.3,4.9,9.75,4.01.38-.1.5-.45.51-.74v-.77c.05-.87-1.25-2.21-3.23-4.13-2.18-2.12-3.56-3.44-6.82-1.57-.93.54-1.3.94-1.31,1.28l-.04,2.52Z"/>
                <path class="cls-18" d="M261.59,327.63c2.63,2.56,4.06,4.07,2.71,4.85-1.35.78-4.05-.39-6.82-2.49-2.42-1.83-5.96-2.06-2.71-3.93,3.25-1.88,4.64-.55,6.82,1.57Z"/>
              </g>
              <path class="cls-9" d="M258.95,326.41l-.19-23.65-6.41,2.08-.06,4.31s-.61,5.15.99,10.37c0,0,1.12,2.28.89,7.58,0,0,2.87,1.63,4.79-.68Z"/>
            </g>
            <path class="cls-29" d="M276.44,293.27h0c-1.28.58-2.81,0-3.39-1.27l-10.15-22.43c-.58-1.28,0-2.81,1.27-3.39h0c1.28-.58,2.81,0,3.39,1.27l10.15,22.43c.58,1.28,0,2.81-1.27,3.39Z"/>
            <path class="cls-10" d="M248.18,297.24v8.73s10.23,3.46,19.86-8.73v-8.45l-19.86,8.45Z"/>
            <path class="cls-12" d="M252.82,299.94c.1.06.2.1.33.11,1.72.13,7.88-1.21,14.05-8.16.51-.57.84-1.35.84-2v-19.73c0-1.49-.53-2.53-1.39-3.01l-4.64-2.71c-.84-.5-2.02-.44-3.31.3l-6.33,3.65c-2.55,1.48-4.64,5.1-4.64,8.05v19.85c0,.46.17.8.45.95l4.64,2.71Z"/>
            <path class="cls-56" d="M254.61,269.62c0,.49.31.98.96,1.36,1.28.74,3.35.74,4.63,0,.65-.37.97-.87.96-1.36v-4.3c0-.49-.31-.98-.96-1.36-1.28-.74-3.35-.74-4.63,0-.65.37-.97.87-.96,1.36v4.3Z"/>
            <path class="cls-1" d="M237.15,297.85h0c-1.26-.64-1.77-2.19-1.13-3.44l11.15-22.11c.64-1.26,2.18-1.77,3.44-1.13h0c1.26.64,1.77,2.19,1.13,3.44l-11.15,22.11c-.64,1.26-2.19,1.77-3.44,1.13Z"/>
            <g>
              <path class="cls-3" d="M266.2,256.01l3.23,12.55c.3,1.17-.86,2.18-1.98,1.72l-7.44-3.1c-.64-.27-1.01-.95-.87-1.64l2.44-12.35c.26-1.31,1.99-1.62,2.69-.48l1.77,2.89c.08.12.13.26.17.4Z"/>
              <path class="cls-15" d="M254.88,263.52c0,1.07-.75,1.51-1.68.97-.93-.54-1.68-1.84-1.68-2.92s.75-1.51,1.68-.97c.93.54,1.68,1.84,1.68,2.92Z"/>
              <circle class="cls-21" cx="257.84" cy="258.4" r="9.01"/>
              <path class="cls-3" d="M249.09,259.6s7.61,4.17,11.32-6.68c0,0,1.98,4.59,6.93,3.57,0,0,0-7.14-7.37-8.53,0,0-13.03-1.3-10.89,11.64Z"/>
              <path class="cls-3" d="M253.28,259.96l3.23,12.55c.3,1.17-.86,2.18-1.98,1.72l-7.44-3.1c-.64-.27-1.01-.95-.87-1.64l2.44-12.35c.26-1.31,1.99-1.62,2.69-.48l1.77,2.89c.08.12.13.26.17.4Z"/>
            </g>
          </g>
        </g>
      </g>
    </g>
  </g>
</svg>